<svg id="Layer_1" data-name="Layer 1" xmlns="http://www.w3.org/2000/svg" viewBox="0 0 300 300.27"><defs><style>.cls-1{fill:#7000df;}</style></defs><path class="cls-1" d="M300,45.05l-.19-3.92-3.34-1.93a293.54,293.54,0,0,0-293.1,0L0,41.13V45A293.32,293.32,0,0,0,146.67,298.37l3.33,1.9,3.33-1.9A293,293,0,0,0,300,45Zm-63.22,55-61.43,35.46-1.67,1h0a32.59,32.59,0,0,0-15.85,23.85c-1.77,12.29,2.57,26.55,11.45,38.37-6.84-11.39-9.93-20.48-8.37-31.82a34.06,34.06,0,0,1,14-23l-.1,62.8c-.06-.06-.11-.13-.16-.19a6.71,6.71,0,0,1,.15,1.34,6.54,6.54,0,0,1-5.48,6.52,122.61,122.61,0,0,1-19.11,1.79,73.13,73.13,0,0,1-19.8-2.58,6.61,6.61,0,0,1-4.75-6.34V150.55l0,0V136.43l0-1.93h0c0-11.85-4.76-19.52-12.74-25.65-9.76-7.67-24.28-11-39-9.25,13.29-.23,24.65,2.61,33.26,10.15a32.32,32.32,0,0,1,11.17,22.12l-54.1-31.41a6.92,6.92,0,0,0-1-.58,6.33,6.33,0,0,1-1.71-1.39,6.48,6.48,0,0,1-1.19-6.62,121.59,121.59,0,0,1,8-17.45A73.06,73.06,0,0,1,80.45,58.56a6.59,6.59,0,0,1,7.86-1l60.93,35.12h0l1.17.68h0c.66.36,1.31.7,2,1v.15a.51.51,0,0,1,0-.13,32.6,32.6,0,0,0,27.81,1.62c11.56-4.52,21.83-15.32,27.74-28.88-6.55,11.56-12.24,18.1-22.88,22.33-8.25,3.39-19,3.65-27.43-.4l54.75-31.67a6.57,6.57,0,0,1,8.65,1.33A113.49,113.49,0,0,1,232.2,74.35a72.39,72.39,0,0,1,7.65,18.43A6.63,6.63,0,0,1,236.74,100.08Z"/></svg>